<?xml version="1.0" encoding="utf-8"?>
<!-- Generator: Adobe Illustrator 19.0.0, SVG Export Plug-In . SVG Version: 6.00 Build 0)  -->
<svg version="1.1" id="Layer_1" xmlns="http://www.w3.org/2000/svg" xmlns:xlink="http://www.w3.org/1999/xlink" x="0px" y="0px"
	 viewBox="0 0 40 40" style="enable-background:new 0 0 40 40;" xml:space="preserve">
<g>
	<path id="XMLID_8_" d="M32.4,40H1.9c-1,0-1.9-0.8-1.9-1.9V7.6c0-1,0.8-1.9,1.9-1.9h15.2c1,0,1.9,0.8,1.9,1.9s-0.8,1.9-1.9,1.9H3.8
		v26.7h26.7V22.9c0-1,0.8-1.9,1.9-1.9c1,0,1.9,0.8,1.9,1.9v15.2C34.2,39.2,33.4,40,32.4,40z"/>
</g>
<g>
	<g>
		<path id="XMLID_1_" d="M40,1.9v9.7c0,1-0.8,1.9-1.9,1.9c-1,0-1.9-0.8-1.9-1.9V6.4L23.1,19.5c-0.4,0.4-0.8,0.5-1.3,0.5
			c-0.5,0-1-0.2-1.3-0.5c-0.7-0.7-0.7-1.9,0-2.7L33.6,3.8h-5.2c-1,0-1.9-0.8-1.9-1.9S27.4,0,28.4,0h9.7c0.2,0,0.4,0,0.6,0.1
			c0.1,0,0.1,0,0.2,0.1c0,0,0.1,0,0.1,0.1c0.1,0,0.1,0.1,0.2,0.1c0.1,0,0.1,0.1,0.2,0.1c0,0,0.1,0.1,0.1,0.1c0,0,0.1,0.1,0.1,0.1
			c0.1,0.2,0.2,0.3,0.3,0.5c0,0,0,0.1,0,0.1C40,1.5,40,1.7,40,1.9z"/>
	</g>
</g>
</svg>
