<?xml version="1.0" encoding="utf-8"?>
<!-- Generator: Adobe Illustrator 19.0.0, SVG Export Plug-In . SVG Version: 6.00 Build 0)  -->
<svg version="1.1" id="Layer_1" xmlns="http://www.w3.org/2000/svg" xmlns:xlink="http://www.w3.org/1999/xlink" x="0px" y="0px"
	 viewBox="0 0 40 40" style="enable-background:new 0 0 40 40;" xml:space="preserve">
<g id="XMLID_7_" transform="translate(0,-952.36218)">
	<path id="XMLID_9_" d="M1.3,952.4c-0.8,0.1-1.3,0.7-1.3,1.5v7c0,0.8,0.7,1.5,1.5,1.5s1.5-0.7,1.5-1.5c0,0,0,0,0,0v-3.4l9.4,9.4
		c0.5,0.6,1.6,0.7,2.2,0.1c0.6-0.6,0.5-1.6-0.1-2.2l-9.4-9.4h3.4c0.8,0,1.5-0.7,1.5-1.5c0-0.8-0.7-1.5-1.5-1.5c0,0,0,0,0,0h-7
		C1.4,952.4,1.4,952.4,1.3,952.4z M31.3,952.4c-0.8,0-1.5,0.7-1.4,1.6s0.7,1.5,1.6,1.4h3.4l-9.4,9.4c-0.6,0.5-0.6,1.6-0.1,2.2
		c0.6,0.6,1.6,0.5,2.2-0.1l9.4-9.4v3.4c0,0.8,0.7,1.5,1.5,1.5s1.5-0.7,1.5-1.5c0,0,0,0,0,0v-7c0-0.8-0.7-1.5-1.5-1.5h-7
		C31.4,952.4,31.4,952.4,31.3,952.4z M13.3,977.3c-0.3,0-0.7,0.2-0.9,0.5L3,987.2v-3.4c0-0.8-0.6-1.5-1.5-1.5c0,0,0,0,0,0
		c-0.8,0-1.5,0.7-1.5,1.5c0,0,0,0,0,0v7c0,0.8,0.7,1.5,1.5,1.5h7c0.8,0,1.5-0.7,1.5-1.5c0-0.8-0.7-1.5-1.5-1.5c0,0,0,0,0,0H5.1
		l9.5-9.5c0.4-0.4,0.6-1.2,0.3-1.7C14.6,977.6,13.9,977.3,13.3,977.3z M26.3,977.3c-0.6,0.1-1.1,0.5-1.2,1c-0.2,0.5,0,1.2,0.4,1.6
		l9.5,9.5h-3.4c-0.8,0-1.5,0.7-1.5,1.5c0,0.8,0.7,1.5,1.5,1.5c0,0,0,0,0,0h7c0.8,0,1.5-0.7,1.5-1.5v-7c0-0.8-0.6-1.5-1.5-1.5
		c0,0,0,0,0,0c-0.8,0-1.5,0.7-1.5,1.5c0,0,0,0,0,0v3.4l-9.4-9.4C27.2,977.5,26.8,977.3,26.3,977.3z"/>
</g>
</svg>
