<?xml version="1.0" encoding="utf-8"?>
<!-- Generator: Adobe Illustrator 19.0.0, SVG Export Plug-In . SVG Version: 6.00 Build 0)  -->
<svg version="1.1" id="Layer_1" xmlns="http://www.w3.org/2000/svg" xmlns:xlink="http://www.w3.org/1999/xlink" x="0px" y="0px"
	 viewBox="0 0 60 60" style="enable-background:new 0 0 60 60;" xml:space="preserve">
<g>
	<path d="M42.5,53.5L41.6,57c-2.5,1-4.5,1.7-6,2.3S32.4,60,30.4,60c-3,0-5.4-0.7-7.1-2.2c-1.7-1.5-2.5-3.4-2.5-5.7
		c0-0.9,0.1-1.8,0.2-2.7c0.1-0.9,0.3-2,0.6-3.1l3.1-11.1c0.3-1.1,0.5-2.1,0.7-3c0.2-0.9,0.3-1.8,0.3-2.6c0-1.4-0.3-2.4-0.9-3
		c-0.6-0.6-1.7-0.8-3.4-0.8c-0.8,0-1.6,0.1-2.5,0.4c-0.9,0.3-1.6,0.5-2.2,0.7l0.8-3.4c2.1-0.8,4-1.6,5.9-2.2
		c1.9-0.6,3.7-0.9,5.3-0.9c3,0,5.4,0.7,7,2.2c1.6,1.5,2.5,3.4,2.5,5.7c0,0.5-0.1,1.3-0.2,2.6c-0.1,1.2-0.3,2.3-0.6,3.4l-3.1,11.1
		c-0.3,0.9-0.5,1.9-0.7,3.1c-0.2,1.1-0.3,2-0.3,2.6c0,1.5,0.3,2.5,1,3c0.7,0.5,1.8,0.8,3.4,0.8c0.8,0,1.6-0.1,2.6-0.4
		C41.3,54,42,53.7,42.5,53.5z M43.3,7c0,1.9-0.7,3.6-2.2,4.9c-1.5,1.4-3.2,2-5.3,2c-2.1,0-3.8-0.7-5.3-2c-1.5-1.4-2.2-3-2.2-4.9
		c0-1.9,0.7-3.6,2.2-5S33.7,0,35.8,0c2.1,0,3.8,0.7,5.3,2.1C42.5,3.4,43.3,5.1,43.3,7z"/>
</g>
</svg>
