<?xml version="1.0" encoding="utf-8"?>
<!-- Generator: Adobe Illustrator 19.0.0, SVG Export Plug-In . SVG Version: 6.00 Build 0)  -->
<svg version="1.1" id="Layer_1" xmlns="http://www.w3.org/2000/svg" xmlns:xlink="http://www.w3.org/1999/xlink" x="0px" y="0px"
	 viewBox="-23 1 64 64" style="enable-background:new -23 1 64 64;" xml:space="preserve">
<style type="text/css">
	.st0{fill:#231F20;}
</style>
<g>
	<path class="st0" d="M20.3,43h-7.5c-0.7,0-1.3,0.6-1.2,1.2v7.5c0,0.6,0.5,1.2,1.2,1.2h7.5c0.6,0,1.2-0.5,1.2-1.2v-7.5
		C21.5,43.7,21,43,20.3,43z"/>
	<path class="st0" d="M5.3,43h-7.5c-0.7,0-1.3,0.6-1.2,1.2v7.5c0,0.6,0.5,1.2,1.2,1.2h7.5c0.6,0,1.2-0.5,1.2-1.2v-7.5
		C6.5,43.7,6,43,5.3,43z"/>
	<path class="st0" d="M20.3,28h-7.5c-0.7,0-1.3,0.6-1.2,1.2v7.5c0,0.6,0.5,1.2,1.2,1.2h7.5c0.6,0,1.2-0.5,1.2-1.2v-7.5
		C21.5,28.7,21,28,20.3,28z"/>
	<path class="st0" d="M5.3,28h-7.5c-0.7,0-1.3,0.6-1.2,1.2v7.5c0,0.6,0.5,1.2,1.2,1.2h7.5c0.6,0,1.2-0.5,1.2-1.2v-7.5
		C6.5,28.7,6,28,5.3,28z"/>
	<path class="st0" d="M20.3,13h-7.5c-0.7,0-1.3,0.6-1.2,1.2v7.5c0,0.6,0.5,1.2,1.2,1.2h7.5c0.6,0,1.2-0.5,1.2-1.2v-7.5
		C21.5,13.7,21,13,20.3,13z"/>
	<path class="st0" d="M5.3,13h-7.5c-0.7,0-1.3,0.6-1.2,1.2v7.5c0,0.6,0.5,1.2,1.2,1.2h7.5c0.6,0,1.2-0.5,1.2-1.2v-7.5
		C6.5,13.7,6,13,5.3,13z"/>
</g>
</svg>
