<?xml version="1.0" encoding="utf-8"?>
<!-- Generator: Adobe Illustrator 19.0.0, SVG Export Plug-In . SVG Version: 6.00 Build 0)  -->
<svg version="1.1" id="Layer_1" xmlns="http://www.w3.org/2000/svg" xmlns:xlink="http://www.w3.org/1999/xlink" x="0px" y="0px"
	 viewBox="0 0 60 60" style="enable-background:new 0 0 60 60;" xml:space="preserve">
<path id="XMLID_3_" d="M14.9,60c-4,0-7.7-1.6-10.6-4.4c-5.8-5.8-5.8-15.3,0-21.1l8.6-8.6c0,0.5-0.1,1-0.1,1.5c0,0.8,0.1,1.6,0.2,2.6
	c0.1,0.9,0.3,1.9,0.6,2.8l-5.5,5.5c-1.8,1.8-2.8,4.2-2.8,6.7c0,2.5,1,4.9,2.8,6.7c1.8,1.8,4.2,2.8,6.7,2.8c2.5,0,4.9-1,6.7-2.8
	l12.5-12.5l0.1-0.1c1-1,1.7-2.2,2.1-3.6c0.4-1.2,0.6-2.4,0.5-3.7c-0.2-2.3-1.1-4.5-2.7-6.1c-1.2-1.2-2.6-2-4.2-2.4l4.2-4.2
	c1.4,0.7,2.7,1.6,3.8,2.8c1.3,1.3,2.3,2.8,3.1,4.5c0.4,0.9,0.7,1.8,0.9,2.8c0.3,1.1,0.4,2.3,0.4,3.3c0,0.9-0.1,1.8-0.3,2.7
	c-0.3,1.8-1,3.4-1.9,5c-0.6,1.1-1.4,2-2.2,2.8L25.5,55.6C22.7,58.4,18.9,60,14.9,60z"/>
<path id="XMLID_2_" d="M26,40.6c-1.4-0.7-2.7-1.6-3.8-2.8c-1.3-1.3-2.3-2.8-3.1-4.5c-0.4-0.9-0.7-1.8-0.9-2.8
	c-0.3-1.1-0.4-2.2-0.4-3.3c0-0.9,0.1-1.8,0.3-2.7c0.3-1.8,1-3.4,1.9-5c0.6-1.1,1.4-2,2.2-2.8L34.5,4.4C37.3,1.6,41.1,0,45.1,0
	c4,0,7.7,1.6,10.5,4.4c5.8,5.8,5.8,15.3,0,21.1l-8.6,8.6c0-0.5,0.1-1,0.1-1.5c0-0.8-0.1-1.6-0.2-2.6c-0.1-0.9-0.3-1.9-0.6-2.8
	l5.5-5.5c1.8-1.8,2.8-4.2,2.8-6.7c0-2.5-1-4.9-2.8-6.7c-1.8-1.8-4.2-2.8-6.7-2.8c-2.5,0-4.9,1-6.7,2.8L25.9,20.6l-0.1,0.1
	c-0.9,1-1.7,2.2-2.1,3.6c-0.4,1.2-0.5,2.4-0.5,3.6c0.2,2.3,1.1,4.5,2.7,6.1c1.2,1.2,2.6,2,4.2,2.4L26,40.6z"/>
</svg>
