<?xml version="1.0" encoding="utf-8"?>
<!-- Generator: Adobe Illustrator 19.0.0, SVG Export Plug-In . SVG Version: 6.00 Build 0)  -->
<svg version="1.1" id="Layer_1" xmlns="http://www.w3.org/2000/svg" xmlns:xlink="http://www.w3.org/1999/xlink" x="0px" y="0px"
	 viewBox="0 0 60 60" style="enable-background:new 0 0 60 60;" xml:space="preserve">
<g sketch:type="MSPage">
	<path sketch:type="MSShapeGroup" d="M6.8,36.8c3.8,0,6.8-3.1,6.8-6.8s-3.1-6.8-6.8-6.8S0,26.2,0,30S3.1,36.8,6.8,36.8L6.8,36.8z
		 M30,36.8c3.8,0,6.8-3.1,6.8-6.8s-3.1-6.8-6.8-6.8s-6.8,3.1-6.8,6.8S26.2,36.8,30,36.8L30,36.8z M53.2,36.8c3.8,0,6.8-3.1,6.8-6.8
		s-3.1-6.8-6.8-6.8c-3.8,0-6.8,3.1-6.8,6.8S49.4,36.8,53.2,36.8L53.2,36.8z"/>
</g>
</svg>
