<?xml version="1.0" encoding="utf-8"?>
<!-- Generator: Adobe Illustrator 19.0.0, SVG Export Plug-In . SVG Version: 6.00 Build 0)  -->
<svg version="1.1" id="Layer_1" xmlns="http://www.w3.org/2000/svg" xmlns:xlink="http://www.w3.org/1999/xlink" x="0px" y="0px"
	 viewBox="0 0 60 60" style="enable-background:new 0 0 60 60;" xml:space="preserve">
<path d="M31.9,41.2h-15V30h5.6c2,0,3.8-1.6,3.8-3.8c0-1.4-0.7-2.3-1.9-3.8l-7.5-9c-1.1-1.3-2.2-2.2-3.8-2.2s-2.6,0.9-3.8,2.2l-7.5,9
	C0.7,23.9,0,24.8,0,26.2C0,28.4,1.7,30,3.8,30h5.6v15c0,2.1,1.7,3.8,3.8,3.8h18.8c2.1,0,3.8-1.7,3.8-3.8S33.9,41.2,31.9,41.2z
	 M56.2,30h-5.6V15c0-2.1-1.7-3.8-3.8-3.8H28.1c-2.1,0-3.8,1.7-3.8,3.8s1.7,3.8,3.8,3.8h15V30h-5.6c-2,0-3.8,1.6-3.8,3.8
	c0,1.4,0.7,2.3,1.9,3.8l7.5,9c1.1,1.3,2.2,2.2,3.8,2.2s2.6-0.9,3.8-2.2l7.5-9c1.1-1.4,1.9-2.3,1.9-3.8C60,31.6,58.3,30,56.2,30z"/>
</svg>
