<?xml version="1.0" encoding="utf-8"?>
<!-- Generator: Adobe Illustrator 19.0.0, SVG Export Plug-In . SVG Version: 6.00 Build 0)  -->
<svg version="1.1" xmlns="http://www.w3.org/2000/svg" xmlns:xlink="http://www.w3.org/1999/xlink" x="0px" y="0px"
	 viewBox="0 0 60 60" style="enable-background:new 0 0 60 60;" xml:space="preserve">
<g id="Layer_1">
</g>
<g id="Layer_2">
	<g id="XMLID_1_">
		<path id="XMLID_4_" d="M35.8,24.2h-8.7v9.7h8.7c8,0,14.5,6.5,14.5,14.6c0,2.7,2.2,4.8,4.8,4.8c2.7,0,4.8-2.2,4.8-4.8
			C60,35.1,49.2,24.2,35.8,24.2z"/>
		<path id="XMLID_5_" d="M27.1,10.8c-0.1-1-0.6-2-1.3-2.7c-0.9-0.9-2.1-1.4-3.4-1.4s-2.5,0.5-3.4,1.4L1.4,25.6
			c-0.2,0.2-0.4,0.5-0.6,0.7c-0.1,0.1-0.1,0.2-0.2,0.3l0,0.1c-0.1,0.1-0.1,0.3-0.2,0.4c0,0.1-0.1,0.2-0.1,0.3l-0.1,0.2
			c0,0.1-0.1,0.3-0.1,0.4C0,28.4,0,28.6,0,28.8L0,29v0.1c0,0.1,0,0.2,0,0.2c0,0.2,0,0.5,0.1,0.7c0,0.1,0.1,0.3,0.1,0.4l0.1,0.2
			c0,0.1,0.1,0.2,0.1,0.3c0.1,0.2,0.2,0.3,0.3,0.5l0,0.1c0,0.1,0.1,0.2,0.1,0.2C1,32,1.2,32.3,1.4,32.5L18.9,50
			c0.9,0.9,2.1,1.4,3.4,1.4c1.3,0,2.5-0.5,3.4-1.4c0.8-0.8,1.2-1.7,1.3-2.7L9.6,29.9L27.1,10.8z"/>
		<path id="XMLID_6_" d="M27.1,46v1.2C27.1,46.8,27.1,46.4,27.1,46z"/>
		<path id="XMLID_7_" d="M27.1,10.9v1.1C27.1,11.7,27.1,11.3,27.1,10.9z"/>
		<polygon id="XMLID_8_" points="27.1,12.1 27.1,10.9 27.1,10.8 27.1,10.8 9.6,29.9 27.1,47.3 27.1,47.3 27.1,47.2 27.1,46 
			27.1,33.9 27.1,24.2 		"/>
	</g>
</g>
</svg>
