<?xml version="1.0" encoding="utf-8"?>
<!-- Generator: Adobe Illustrator 19.0.0, SVG Export Plug-In . SVG Version: 6.00 Build 0)  -->
<svg version="1.1" id="Layer_1" xmlns="http://www.w3.org/2000/svg" xmlns:xlink="http://www.w3.org/1999/xlink" x="0px" y="0px"
	 viewBox="0 0 60 60" style="enable-background:new 0 0 60 60;" xml:space="preserve">
<g>
	<path id="XMLID_4_" d="M40.2,33.8c-2.4,0.6-5,0.6-7.5,0c-3.4-0.9-6.9-0.2-9.6,1.7L18.3,39c-0.4,0.3-1,0.4-1.5,0.2
		c-0.5-0.2-0.9-0.6-1-1.2L9.5,13.2c-0.2-0.7,0.1-1.4,0.6-1.8L15,7.9c3.5-2.5,8-3.3,12.3-2.2c0,0,0,0,0,0C30.7,6.6,34.2,6,36.9,4
		l4.7-3.7c0.4-0.3,1-0.4,1.6-0.3c0.5,0.2,0.9,0.6,1.1,1.2l6.3,24.8c0.2,0.6-0.1,1.3-0.6,1.7l-4.8,3.7C43.7,32.6,42,33.4,40.2,33.8z"
		/>
	<path id="XMLID_1_" d="M22.9,59.9c-0.9,0.2-1.8-0.3-2-1.2l-5.3-21c-0.2-0.9,0.3-1.8,1.2-2c0.9-0.2,1.8,0.3,2,1.2l5.3,21
		C24.4,58.8,23.8,59.7,22.9,59.9z"/>
</g>
</svg>
