<?xml version="1.0" encoding="utf-8"?>
<!-- Generator: Adobe Illustrator 19.0.0, SVG Export Plug-In . SVG Version: 6.00 Build 0)  -->
<svg version="1.1" id="Layer_1" xmlns="http://www.w3.org/2000/svg" xmlns:xlink="http://www.w3.org/1999/xlink" x="0px" y="0px"
	 viewBox="0 0 60 60" style="enable-background:new 0 0 60 60;" xml:space="preserve">
<g>
	<path d="M56.6,25.7c0-3.4-2.8-6.2-6.2-6.2l-14.3-0.2l1.3-10.5c0-3.6-2.3-8.7-6-8.7h-3.9l-2,10.6l-9,14c-1,1.3-2.1,3.5-2.1,3.5v26.3
		c1.4,1.5,4.1,3,6.3,3h23.5c3.4,0,6.2-2.8,6.2-6.2c0-0.8-0.1-1.5-0.4-2.2c2.6-0.8,4.5-3.2,4.5-6c0-1-0.2-1.9-0.7-2.8
		c1.8-1.2,2.8-3.1,2.8-5.2c0-1.7-0.7-3.4-2-4.5C55.9,29.1,56.6,27.4,56.6,25.7z"/>
</g>
<path id="XMLID_1_" d="M5.4,60h4.3c1.1,0,2-0.9,2-2V29.9c0-1.1-0.9-2-2-2H5.4c-1.1,0-2,0.9-2,2V58C3.4,59.1,4.3,60,5.4,60z"/>
</svg>
