<?xml version="1.0" encoding="utf-8"?>
<!-- Generator: Adobe Illustrator 19.0.0, SVG Export Plug-In . SVG Version: 6.00 Build 0)  -->
<svg version="1.1" id="Layer_1" xmlns="http://www.w3.org/2000/svg" xmlns:xlink="http://www.w3.org/1999/xlink" x="0px" y="0px"
	 viewBox="0 0 60 60" style="enable-background:new 0 0 60 60;" xml:space="preserve">
<path d="M47.2,4.5c-1.2,0-2.3,1.1-2.3,2.6v46c0,1.4,1,2.6,2.3,2.6h10.5c1.2,0,2.3-1.1,2.3-2.6V7c0-1.3-0.9-2.4-2-2.6
	c-0.1,0-0.2,0-0.2,0H47.2z M24.7,16.4c-1.2,0-2.3,1.1-2.3,2.6V53c0,1.4,1,2.6,2.3,2.6h10.5c1.2,0,2.3-1.1,2.3-2.6V18.9
	c0-1.3-0.9-2.4-2-2.6c-0.1,0-0.2,0-0.2,0H24.7z M2.3,28.3C1,28.3,0,29.4,0,30.9V53c0,1.4,1,2.6,2.3,2.6h10.5c1.2,0,2.3-1.1,2.3-2.6
	V30.9c0-1.3-0.9-2.4-2-2.6c-0.1,0-0.2,0-0.2,0H2.3z"/>
</svg>
