<?xml version="1.0" encoding="utf-8"?>
<!-- Generator: Adobe Illustrator 19.0.0, SVG Export Plug-In . SVG Version: 6.00 Build 0)  -->
<svg version="1.1" xmlns="http://www.w3.org/2000/svg" xmlns:xlink="http://www.w3.org/1999/xlink" x="0px" y="0px"
	 viewBox="0 0 60 60" style="enable-background:new 0 0 60 60;" xml:space="preserve">
<g id="Layer_1">
</g>
<g id="Layer_2">
	<g>
		<path d="M30,0C13.4,0,0,13.4,0,30c0,16.6,13.4,30,30,30s30-13.4,30-30C60,13.4,46.6,0,30,0z M37.1,54c-1.8,0.5-3.6,0.8-5.5,1
			c0.2-1.8,4.3-8.6,1.1-10.2c-3.7-1.8-3.7-6.4-3.3-9.8c0.4-3.3-5-3-14.2-8.4c-4.6-2.7-6.3-9.4-4.2-12.7C15.5,8.5,22.3,5,29.9,5
			C31,6.6,35,8.4,36.4,9.7c1.7,1.4-3.1,3.4-6.3,5.4s-3.1,8.2-3.9,7.1c-0.8-1.1-6.3-8.1-7.4-0.7c-1.1,7.4,2.4,3.7,3.7,3.5
			c1.3-0.2,1.2,1.1,0.7,2.3c-0.5,1.2,5.5,2.9,7.4,3.1c1.9,0.2,3.9-2.4,6.7,0c2.7,2.4,9.5,4.5,12.8,5.4s0.1,5.1-1.1,8.3
			C48.1,46.3,42.6,51.5,37.1,54z"/>
	</g>
</g>
</svg>
