<?xml version="1.0" encoding="utf-8"?>
<!-- Generator: Adobe Illustrator 19.0.0, SVG Export Plug-In . SVG Version: 6.00 Build 0)  -->
<svg version="1.1" id="Layer_1" xmlns="http://www.w3.org/2000/svg" xmlns:xlink="http://www.w3.org/1999/xlink" x="0px" y="0px"
	 viewBox="0 0 60 60" style="enable-background:new 0 0 60 60;" xml:space="preserve">
<path id="XMLID_1_" d="M3.3,38.3c0-0.9,0.3-1.8,1-2.7c0.7-0.9,1.7-1.8,3-2.8c-0.2,0-0.5-0.1-0.8-0.1c-0.3,0-4.9-2.2-1.5-8.8l0.2-0.5
	c2.2-1.5,5.4-2.5,8.6-3.2c-0.4-2-1-4-2.1-5.9l-0.6-1.1c-1.4-2.5-2.1-4.5-2.1-5.9c0-3.8,2.1-6.2,6.3-7.1L16.5,0l2,8.5l7.4,7.5
	c0.5,0.6,1.4,1.6,2.6,3.3l1.1,1.4c1.1,0.4,2.3,0.9,3.7,1.6c0.5,0.3,1.4,0.7,2.5,1.2c6.9,3.3,12.7,5.1,17.3,5.2
	c1.2,1.8,2.2,3.8,2.8,5.9c0.6,2.1,0.9,4.4,0.9,7c0,2.8-0.3,5.1-0.8,6.9c-0.5,1.8-1.4,3.5-2.6,5c-1.2,0.3-3,0.5-5.3,0.7
	c-2.3,0.2-4,0.4-5,0.8c-0.2,0.1-2,0.9-5.2,2.6c-3.2,1.7-6.4,2.5-9.6,2.5c-2.8,0-5.7-0.3-8.8-0.9c-3.1-0.6-5.5-1.3-7.2-2.1
	c-0.7-0.3-1.2-0.8-1.6-1.5c-0.4-0.7-0.6-1.4-0.6-2.2c0-0.3,0-0.6,0.1-0.9c0-0.4,0.1-0.8,0.2-1.3c-1.3-0.3-2.3-0.8-3-1.5
	c-0.7-0.7-1-1.6-1-2.6c0-0.5,0.1-1.1,0.4-1.7c0.3-0.6,0.8-1.3,1.4-2.1c-1.6-0.5-2.8-1.2-3.7-2C3.7,40.3,3.3,39.3,3.3,38.3z"/>
</svg>
