<?xml version="1.0" encoding="utf-8"?>
<!-- Generator: Adobe Illustrator 19.0.0, SVG Export Plug-In . SVG Version: 6.00 Build 0)  -->
<svg version="1.1" id="Layer_1" xmlns="http://www.w3.org/2000/svg" xmlns:xlink="http://www.w3.org/1999/xlink" x="0px" y="0px"
	 viewBox="0 0 60 60" style="enable-background:new 0 0 60 60;" xml:space="preserve">
<path id="XMLID_2_" d="M0,45.4c0,1,0.8,1.8,1.9,1.8c0.4,0,0.7-0.1,1-0.3c0,0,0,0,0,0c0.1-0.1,0.3-0.3,0.4-0.4c0,0,0,0,0,0
	c7.4-6.7,16.8-8.2,28.1-8.4v0c2.3,0,4.1,1.8,4.2,4c0,0,0,0.1,0,0.1c0,0,0,0.1,0,0.1v7.2h0c0,1,0.8,1.8,1.9,1.8
	c0.5,0,0.9-0.2,1.2-0.5c0,0,0.1-0.1,0.1-0.1L58.3,33l0.7-0.7c0.6-0.7,1-1.7,1-2.7c0-1.2-0.5-2.2-1.3-3l-0.2-0.2c0,0,0,0,0,0L38.7,9
	c0,0,0,0-0.1-0.1c-0.3-0.3-0.7-0.4-1.2-0.4c-1,0-1.9,0.8-1.9,1.8h0v5.8c0,0,0,0.1,0,0.1c0,0.1,0,0.1,0,0.1c-0.1,2.1-1.7,3.8-3.7,4
	C14.2,22,4.8,34.9,0.2,44.6C0.1,44.8,0,45.1,0,45.4z"/>
</svg>
