<?xml version="1.0" encoding="utf-8"?>
<!-- Generator: Adobe Illustrator 19.0.0, SVG Export Plug-In . SVG Version: 6.00 Build 0)  -->
<svg version="1.1" id="BETA" xmlns="http://www.w3.org/2000/svg" xmlns:xlink="http://www.w3.org/1999/xlink" x="0px" y="0px"
	 viewBox="0 0 617.3 71.5" style="enable-background:new 0 0 617.3 71.5;" xml:space="preserve">
<style type="text/css">
	.Arched_x0020_Green{fill:url(#SVGID_1_);stroke:#FFFFFF;stroke-width:0.25;stroke-miterlimit:1;}
	.st0{fill:#FFFFFF;}
</style>
<linearGradient id="SVGID_1_" gradientUnits="userSpaceOnUse" x1="0" y1="612" x2="0.7071" y2="611.2929">
	<stop  offset="0" style="stop-color:#20AC4B"/>
	<stop  offset="0.9831" style="stop-color:#19361A"/>
</linearGradient>
<path class="st0" d="M45.9,5.2h23.8v0.9l-3.8,3.8c-0.9,0.9-1.4,1.7-1.4,3.1v59h-0.9l-45-40.7v30.4c0,1.5,0.5,2.2,1.4,3.1l3.8,3.8
	v0.9H0v-0.9l3.8-3.8c0.9-0.9,1.4-1.7,1.4-3.1V2.3h0.9l45,40.6V13c0-1.5-0.5-2.2-1.4-3.1l-3.8-3.8V5.2z M136.1,51.3
	c0,12.5-8.9,18.3-23.5,18.3H75.1v-0.9l3.8-3.8c0.9-0.9,1.4-1.7,1.4-3.1V13c0-1.5-0.5-2.2-1.4-3.1l-3.8-3.8V5.2H113
	c13.7,0,20.5,6.4,20.5,17.4c0,7.1-5.6,11.8-11.6,13.1v0.2C130.6,37.4,136.1,42.5,136.1,51.3z M94.9,30.7h16.3c5,0,7.8-2.3,7.8-6.8
	c0-4.1-2.5-6.9-7.8-6.9H94.9V30.7z M121.3,49.8c0-5.7-3.5-7.9-10.4-7.9h-16v15.7h16C116.8,57.6,121.3,55.6,121.3,49.8z M176.1,58.6
	c-11.1,0-18.6-8.4-18.6-20.9c0-13.3,8.4-21.2,19.3-21.2c8.5,0,12.8,4.7,14,8.6l1,0.3l5.5-21.9l-0.9-0.4c-1.7,1.4-3.6,2.3-6.4,2.3
	c-3.1,0-8.1-1.2-14.1-1.2c-19.3,0-34.1,12.7-34.1,33.4c0,20.7,14.7,33.2,33.8,33.2c11,0,19.4-4.1,24.5-9.6L191.4,51
	C188.7,54.8,183.7,58.6,176.1,58.6z M244.4,6.2l3.8,3.8c0.9,0.9,1.4,1.7,1.4,3.1v31.6c0,9.3-4.7,13.8-12.9,13.8
	c-8.3,0-13.1-4.3-13.1-13.8V13.1c0-1.5,0.5-2.2,1.4-3.1l3.8-3.8V5.3h-24.8v0.9l3.8,3.8c0.9,0.9,1.4,1.7,1.4,3.1v31.2
	c0,17.8,11.5,26.5,27.6,26.5c16.1,0,27.6-8.7,27.6-26.5V13.1c0-1.5,0.5-2.2,1.4-3.1l3.8-3.8V5.3h-25V6.2z M321.7,60.6V42.1
	c0-11-5.5-17.4-15.1-17.4c-6.5,0-12.7,3.8-14.8,8.7v-7.9h-18.6v0.9l3.8,3.8c1.2,1.2,1.4,1.9,1.4,4.2v26.3c0,2.3-0.2,3-1.4,4.2
	l-3.8,3.8v0.9h24.1v-0.9l-3.8-3.8c-1.2-1.2-1.4-1.9-1.4-4.2V45.8c0-5.2,2.6-9.4,8.4-9.4c5,0,7.3,3.6,7.3,8.6v24.4h18.9v-0.9
	l-3.8-3.8C321.9,63.6,321.7,62.9,321.7,60.6z M351,60.6V25.4h-18.9v0.9l3.8,3.8c1.2,1.2,1.4,1.9,1.4,4.2v26.3c0,2.3-0.2,3-1.4,4.2
	l-3.8,3.8v0.9h24.1v-0.9l-3.8-3.8C351.2,63.6,351,62.9,351,60.6z M344,18.9c4.4,0,8.1-3.3,8.1-8c0-4.7-3.7-8-8.1-8
	c-4.3,0-8.2,3.3-8.2,8C335.9,15.6,339.7,18.9,344,18.9z M407.7,25.4h-17.2l-8,21.3h-0.2l-9.1-21.3h-16.9v1c3.5,2.5,5.3,5.6,7,8.8
	l18.3,36.3h0.9l18.2-36.3c1.7-3.5,3.3-6.2,7-8.8V25.4z M451.6,47.5c0,1.6-0.1,3-0.2,3.9h-30.9c0.6,4.3,4.4,8.3,11.2,8.3
	c4.3,0,7.6-1.7,9.5-3.7l7.6,9c-3.9,3.7-10.9,5.8-18.3,5.8c-14.8,0-24.2-8.8-24.2-22.6s9-23.6,23.9-23.6
	C445.1,24.6,451.6,34.3,451.6,47.5z M437.7,43.4c-0.3-4.7-2.8-8.5-8.3-8.5c-5.5,0-8.6,4-9,8.5H437.7z M475.3,34.3v-8.9h-18.6v0.9
	l3.8,3.8c1.2,1.2,1.4,1.9,1.4,4.2v26.3c0,2.3-0.2,3-1.4,4.2l-3.8,3.8v0.9h24.1v-0.9l-3.8-3.8c-1.2-1.2-1.4-1.9-1.4-4.2V47.3
	c0-6.6,3.3-10.2,8.6-10.2c3,0,5.1,1.3,6.6,2.6l3.6-13.8c-1.2-0.6-3.3-1.3-5.8-1.3C482.2,24.6,477.3,29,475.3,34.3z M523.3,42.5
	c-6-1-10.7-1.2-10.7-4.6c0-2,1.7-3.4,5.8-3.4c5.4,0,10.5,1.7,12.4,5.9l0.9,0.3l4.3-16.8l-0.9-0.4c-1.8,1.4-3.4,2.3-6.1,2.3
	c-3,0-5.8-1.2-11.5-1.2c-9.8,0-19,3.5-19,14.4c0,8.5,6.9,11.8,13.5,12.9c6.2,1,11.1,1.2,11.1,4.9c0,2.1-1.8,3.7-5.9,3.7
	c-6.3,0-11.7-2.5-14.8-5.1l-6.4,9.4c4.8,4,12.6,6,20.3,6c12.9,0,20.8-5.6,20.8-15.4C537.2,46.9,530,43.6,523.3,42.5z M585.8,64.8
	l3.8,3.8v0.9H571v-6c-2.1,4.2-7.3,7.3-13.9,7.3c-8,0-14.2-5.1-14.2-12.9c0-9.7,6.9-14.3,21.8-14.6c4.8-0.1,6.1-1.1,6.1-3.6
	c0-2.3-2.2-4.5-8-4.5c-6.2,0-9.3,2.8-11.2,4.6l-7.2-8.4c4.1-4.1,10.8-6.8,19.7-6.8c14.1,0,20.3,5.8,20.3,17.1v18.9
	C584.4,62.9,584.6,63.6,585.8,64.8z M570.8,49.8c-1.1,0.4-3.1,0.6-5.8,0.7c-6.2,0.4-8.3,2.6-8.3,5.6c0,2.8,1.8,5,5.1,5
	c6.2,0,9-4.1,9-8.3V49.8z M613.5,64.8c-1.2-1.2-1.4-1.9-1.4-4.2V0h-18.9v0.9l3.8,3.8c1.2,1.2,1.4,1.9,1.4,4.2v51.7
	c0,2.3-0.2,3-1.4,4.2l-3.8,3.8v0.9h24.1v-0.9L613.5,64.8z"/>
</svg>
