<?xml version="1.0" encoding="utf-8"?>
<!-- Generator: Adobe Illustrator 19.0.0, SVG Export Plug-In . SVG Version: 6.00 Build 0)  -->
<svg version="1.1" id="Layer_1" xmlns="http://www.w3.org/2000/svg" xmlns:xlink="http://www.w3.org/1999/xlink" x="0px" y="0px"
	 viewBox="0 0 60 38.3" style="enable-background:new 0 0 60 38.3;" xml:space="preserve">
<path id="XMLID_11_" d="M52.4,37.4c-0.4,0.2-0.9,0.3-1.5,0.3l9.1,0L47.1,19.2L59.1,0H47.5l-6.6,11.7L34.1,0H22.8l11.8,18.4L22,37.7
	l7.9,0c-1.3-0.1-2.5-1.1-2.8-2.3C26.7,34.2,27,33,27.9,32c0.7-0.7,1.5-1,2.5-1c-0.8-0.7-1.1-1.7-1-2.9c0.1-1.1,0.9-2.2,2-2.6
	c1-0.5,2.3-0.3,3.2,0.4c-0.1-0.6-0.1-1.3,0.1-1.8c0.3-1,1.3-2,2.4-2.2c1.4-0.3,2.7,0.2,3.5,1.4c0.1,0.1,0.2,0.3,0.2,0.4
	c0.5-1,1.5-1.8,2.6-1.9c1.2-0.2,2.3,0.3,3.1,1.4c0.5,0.8,0.7,1.8,0.5,2.7c0.9-0.6,2.1-0.8,3-0.4c1.1,0.3,2,1.5,2.1,2.6
	c0.1,1.1-0.2,2.1-1,2.9c1.3,0,2.5,0.8,3,2c0.5,1.2,0.3,2.7-0.5,3.6C53.1,37,52.8,37.3,52.4,37.4z"/>
<g id="XMLID_16_">
	<path id="XMLID_17_" d="M33.3,18.5L20.8,37.8c-1.5,0.3-3.1,0.4-4.8,0.4c-5.1,0-9.1-1.3-11.9-4S0,27.9,0,23V0h10.2v22.2
		c0,2.7,0.5,4.6,1.5,5.8c1,1.2,2.5,1.8,4.4,1.8c2.1,0,3.6-0.6,4.5-1.8c0.9-1.2,1.4-3.2,1.4-5.9V1.2L33.3,18.5z"/>
</g>
<path id="XMLID_9_" d="M50.2,31.2l-7.8,5.2l2.6-6.2l1.2-2.9c0.5-0.9,1.4-1.5,2.5-1.5c1,0,1.9,0.5,2.4,1.3c0.6,0.9,0.6,2.2,0,3.1
	C51,30.5,50.6,30.9,50.2,31.2"/>
<path id="XMLID_7_" d="M44.8,22.4c-0.8-0.4-1.9-0.3-2.6,0.2c-0.9,0.6-1.4,1.6-1.3,2.6l1.1,0c0.1,0,0.2,0.1,0.2,0.2l-0.6,0.3
	c-0.4,0.3-0.6,0.6-0.5,1.1l1.2,7.4l0.2,1l3.8-9.1c0.2-0.4,0.2-0.8,0.2-1.2C46.6,23.9,45.9,22.9,44.8,22.4z"/>
<path id="XMLID_5_" d="M40.5,24.4c-0.2-0.9-1.1-1.8-2-2c-1.1-0.3-2.1,0.1-2.9,0.9c-0.7,0.8-0.9,2.1-0.5,3l3.8,9.1l1.6-9.8
	C40.6,25.1,40.6,24.7,40.5,24.4z"/>
<path id="XMLID_4_" d="M30.9,30.8c-0.8-0.7-1.1-1.6-1-2.6c0.1-1.1,0.9-2.1,1.9-2.4c1-0.3,2.1-0.1,2.9,0.7c0.3,0.3,0.5,0.6,0.7,1
	l3.7,8.8L30.9,30.8"/>
<path id="XMLID_3_" d="M30.1,37.3c-1-0.1-1.8-0.7-2.3-1.6c-0.5-0.9-0.4-2.3,0.3-3.1c0.7-0.8,1.7-1.3,2.8-1.1
	c0.4,0.1,0.8,0.2,1.1,0.5l7.9,5.3L30.1,37.3"/>
<path id="XMLID_2_" d="M51.4,37.3c1-0.1,1.8-0.7,2.3-1.6c0.5-0.9,0.4-2.3-0.3-3.1c-0.7-0.8-1.7-1.3-2.8-1.1
	c-0.4,0.1-0.8,0.2-1.1,0.5l-7.9,5.3L51.4,37.3"/>
</svg>
